<svg width="50" height="46" viewBox="0 0 50 46" fill="none" xmlns="http://www.w3.org/2000/svg">
<path d="M43.0411 30.3165C42.8804 30.143 42.7227 29.9695 42.5679 29.8021C40.4392 27.4936 39.1513 26.1004 39.1513 19.5654C39.1513 16.1821 38.2485 13.4061 36.469 11.324C35.157 9.78594 33.3833 8.61913 31.0456 7.75683C31.0155 7.74182 30.9886 7.72214 30.9662 7.6987C30.1254 5.17424 27.8244 3.48346 25.2293 3.48346C22.6342 3.48346 20.3341 5.17424 19.4933 7.6961C19.4708 7.71868 19.4444 7.73774 19.4149 7.75249C13.9595 9.76599 11.3083 13.629 11.3083 19.5628C11.3083 26.1004 10.0223 27.4936 7.89164 29.7995C7.73682 29.9669 7.5791 30.1369 7.41848 30.3139C7.00357 30.7625 6.74069 31.3083 6.66095 31.8867C6.58121 32.465 6.68795 33.0518 6.96854 33.5775C7.56556 34.7052 8.83796 35.4053 10.2903 35.4053H40.1789C41.6245 35.4053 42.8882 34.7061 43.4871 33.5835C43.7689 33.0577 43.8767 32.4705 43.7976 31.8915C43.7186 31.3124 43.456 30.7658 43.0411 30.3165Z" fill="#718096"/>
<path d="M25.2289 42.3488C26.6272 42.3478 27.999 42.0075 29.199 41.3641C30.399 40.7206 31.3823 39.798 32.0448 38.694C32.076 38.6411 32.0914 38.5818 32.0895 38.522C32.0876 38.4622 32.0685 38.4038 32.0341 38.3526C31.9996 38.3013 31.9509 38.2589 31.8928 38.2295C31.8346 38.2001 31.769 38.1847 31.7022 38.1848H18.7575C18.6907 38.1845 18.6249 38.1999 18.5667 38.2292C18.5084 38.2585 18.4596 38.3009 18.425 38.3522C18.3904 38.4035 18.3712 38.4619 18.3693 38.5218C18.3674 38.5817 18.3828 38.641 18.414 38.694C19.0764 39.7978 20.0596 40.7204 21.2594 41.3638C22.4592 42.0073 23.8309 42.3476 25.2289 42.3488Z" fill="#718096"/>
</svg>
