<svg width="47" height="46" viewBox="0 0 47 46" fill="none" xmlns="http://www.w3.org/2000/svg">
<path d="M23.8957 15.977C22.4703 15.977 21.0769 16.384 19.8917 17.1466C18.7065 17.9092 17.7828 18.9931 17.2373 20.2612C16.6918 21.5294 16.5491 22.9248 16.8272 24.271C17.1052 25.6173 17.7916 26.8539 18.7996 27.8245C19.8075 28.7951 21.0917 29.4561 22.4897 29.7238C23.8877 29.9916 25.3368 29.8542 26.6537 29.3289C27.9706 28.8036 29.0962 27.9141 29.8881 26.7728C30.6801 25.6315 31.1027 24.2897 31.1027 22.9171C31.097 21.0782 30.3359 19.3161 28.9855 18.0158C27.6352 16.7154 25.8054 15.9825 23.8957 15.977ZM39.4557 22.9171C39.4519 23.5656 39.4026 24.2131 39.3079 24.8551L43.6943 28.1621C43.8854 28.314 44.0141 28.5264 44.0575 28.7612C44.1009 28.9961 44.0562 29.2382 43.9313 29.4443L39.7818 36.3427C39.6557 36.5469 39.4588 36.7018 39.2258 36.78C38.9928 36.8582 38.7386 36.8548 38.508 36.7704L33.3504 34.7751C32.2765 35.5715 31.1012 36.2324 29.8532 36.7418L29.0821 42.0145C29.0389 42.2507 28.9119 42.4651 28.7228 42.6211C28.5337 42.7772 28.2941 42.8651 28.0452 42.8699H19.7463C19.5018 42.8653 19.2662 42.7811 19.0779 42.6309C18.8895 42.4808 18.7596 42.2736 18.7094 42.0432L17.9382 36.7704C16.6868 36.2669 15.5107 35.605 14.441 34.802L9.28346 36.7973C9.05291 36.8818 8.7988 36.8853 8.56582 36.8073C8.33284 36.7292 8.13589 36.5745 8.00961 36.3705L3.86017 29.4729C3.73527 29.2668 3.69052 29.0248 3.73392 28.7899C3.77733 28.555 3.90605 28.3426 4.0971 28.1907L8.48348 24.8837C8.38992 24.232 8.34056 23.575 8.33573 22.9171C8.33948 22.2686 8.38884 21.6211 8.48348 20.9791L4.0971 17.6721C3.90605 17.5202 3.77733 17.3078 3.73392 17.0729C3.69052 16.8381 3.73527 16.596 3.86017 16.3899L8.00961 9.49146C8.13575 9.28724 8.33264 9.1324 8.56563 9.05418C8.79863 8.97595 9.05281 8.97935 9.28346 9.06378L14.441 11.0591C15.5149 10.2627 16.6902 9.60179 17.9382 9.09241L18.7094 3.81966C18.7525 3.58348 18.8795 3.36906 19.0686 3.21305C19.2578 3.05703 19.4973 2.96911 19.7463 2.96429H28.0452C28.2896 2.96888 28.5252 3.05312 28.7136 3.20327C28.9019 3.35343 29.0318 3.56062 29.0821 3.79103L29.8532 9.06378C31.1062 9.56691 32.2839 10.2289 33.3549 11.0322L38.508 9.03689C38.7385 8.95238 38.9926 8.94885 39.2256 9.02691C39.4586 9.10498 39.6555 9.25964 39.7818 9.4637L43.9313 16.3622C44.0562 16.5682 44.1009 16.8103 44.0575 17.0452C44.0141 17.2801 43.8854 17.4924 43.6943 17.6443L39.3079 20.9513C39.4015 21.6028 39.4508 22.2594 39.4557 22.9171Z" fill="#718096"/>
</svg>
