<svg width="61" height="25" viewBox="0 0 61 25" fill="none" xmlns="http://www.w3.org/2000/svg">
<g clip-path="url(#clip0_580_2609)">
<g clip-path="url(#clip1_580_2609)">
<path d="M7.75 7.76843C5.28596 7.76843 3.28125 9.77314 3.28125 12.2372C3.28125 14.7012 5.28596 16.7059 7.75 16.7059C10.214 16.7059 12.2187 14.7012 12.2187 12.2372C12.2187 9.77314 10.214 7.76843 7.75 7.76843ZM6.67105 10.2782C6.94326 9.9897 7.32633 9.83093 7.75 9.83093C8.17367 9.83093 8.5533 9.99078 8.82658 10.2808C9.10351 10.5747 9.23822 10.9696 9.20643 11.3941C9.14283 12.2372 8.48971 12.9247 7.75 12.9247C7.01029 12.9247 6.35588 12.2372 6.29357 11.3939C6.26199 10.966 6.39648 10.5698 6.67105 10.2782ZM7.75 16.0184C7.24522 16.0188 6.74551 15.9177 6.2805 15.7213C5.8155 15.5249 5.39467 15.2371 5.04297 14.875C5.2444 14.5878 5.50105 14.3435 5.79793 14.1566C6.34557 13.8055 7.03865 13.6122 7.75 13.6122C8.46135 13.6122 9.15443 13.8055 9.70143 14.1566C9.99855 14.3435 10.2554 14.5877 10.457 14.875C10.1054 15.2372 9.68454 15.525 9.21953 15.7214C8.75451 15.9178 8.25479 16.0188 7.75 16.0184Z" fill="white"/>
<path d="M21.0323 16.8577C20.559 16.8577 20.119 16.771 19.7123 16.5977C19.3123 16.4243 18.9657 16.1843 18.6723 15.8777C18.3857 15.5643 18.1757 15.201 18.0423 14.7877L19.1723 14.2977C19.3523 14.7243 19.6123 15.061 19.9523 15.3077C20.2923 15.5477 20.6757 15.6677 21.1023 15.6677C21.3423 15.6677 21.549 15.631 21.7223 15.5577C21.9023 15.4777 22.039 15.371 22.1323 15.2377C22.2323 15.1043 22.2823 14.9443 22.2823 14.7577C22.2823 14.5377 22.2157 14.3577 22.0823 14.2177C21.9557 14.071 21.7623 13.9577 21.5023 13.8777L20.0723 13.4177C19.4923 13.2377 19.0557 12.9677 18.7623 12.6077C18.469 12.2477 18.3223 11.8243 18.3223 11.3377C18.3223 10.911 18.4257 10.5343 18.6323 10.2077C18.8457 9.881 19.139 9.62767 19.5123 9.44767C19.8923 9.261 20.3257 9.16767 20.8123 9.16767C21.259 9.16767 21.669 9.24767 22.0423 9.40767C22.4157 9.561 22.7357 9.77767 23.0023 10.0577C23.2757 10.331 23.479 10.6543 23.6123 11.0277L22.4923 11.5277C22.3457 11.1543 22.1257 10.8677 21.8323 10.6677C21.539 10.461 21.199 10.3577 20.8123 10.3577C20.5857 10.3577 20.3857 10.3977 20.2123 10.4777C20.039 10.551 19.9023 10.6577 19.8023 10.7977C19.709 10.931 19.6623 11.091 19.6623 11.2777C19.6623 11.4843 19.729 11.6677 19.8623 11.8277C19.9957 11.981 20.199 12.101 20.4723 12.1877L21.8423 12.6177C22.4357 12.811 22.879 13.0777 23.1723 13.4177C23.4723 13.7577 23.6223 14.1777 23.6223 14.6777C23.6223 15.1043 23.5123 15.481 23.2923 15.8077C23.0723 16.1343 22.769 16.391 22.3823 16.5777C21.9957 16.7643 21.5457 16.8577 21.0323 16.8577ZM24.847 16.7377V9.28767H26.207V16.7377H24.847ZM31.1699 16.8577C30.6366 16.8577 30.1433 16.761 29.6899 16.5677C29.2366 16.3743 28.8399 16.1043 28.4999 15.7577C28.1599 15.411 27.8933 15.0043 27.6999 14.5377C27.5133 14.071 27.4199 13.561 27.4199 13.0077C27.4199 12.4543 27.5099 11.9443 27.6899 11.4777C27.8766 11.0043 28.1366 10.5977 28.4699 10.2577C28.8099 9.911 29.2066 9.64434 29.6599 9.45767C30.1133 9.26434 30.6066 9.16767 31.1399 9.16767C31.6733 9.16767 32.1499 9.25767 32.5699 9.43767C32.9966 9.61767 33.3566 9.85767 33.6499 10.1577C33.9433 10.451 34.1533 10.7743 34.2799 11.1277L33.0699 11.7077C32.9299 11.321 32.6933 11.0077 32.3599 10.7677C32.0266 10.5277 31.6199 10.4077 31.1399 10.4077C30.6733 10.4077 30.2599 10.5177 29.8999 10.7377C29.5466 10.9577 29.2699 11.261 29.0699 11.6477C28.8766 12.0343 28.7799 12.4877 28.7799 13.0077C28.7799 13.5277 28.8799 13.9843 29.0799 14.3777C29.2866 14.7643 29.5699 15.0677 29.9299 15.2877C30.2899 15.5077 30.7033 15.6177 31.1699 15.6177C31.5499 15.6177 31.8999 15.5443 32.2199 15.3977C32.5399 15.2443 32.7966 15.031 32.9899 14.7577C33.1833 14.4777 33.2799 14.1477 33.2799 13.7677V13.1977L33.8999 13.7377H31.1399V12.5877H34.6399V13.3377C34.6399 13.911 34.5433 14.4177 34.3499 14.8577C34.1566 15.2977 33.8933 15.6677 33.5599 15.9677C33.2333 16.261 32.8633 16.4843 32.4499 16.6377C32.0366 16.7843 31.6099 16.8577 31.1699 16.8577ZM35.7161 16.7377V9.28767H36.7761L40.8761 14.8077L40.3261 14.9177V9.28767H41.6861V16.7377H40.6161L36.5761 11.1777L37.0761 11.0677V16.7377H35.7161ZM47.7755 16.8577C47.2022 16.8577 46.6922 16.7377 46.2455 16.4977C45.8055 16.2577 45.4589 15.9277 45.2055 15.5077C44.9522 15.0877 44.8255 14.611 44.8255 14.0777V9.28767H46.1855V14.0077C46.1855 14.3143 46.2522 14.591 46.3855 14.8377C46.5255 15.0843 46.7155 15.2777 46.9555 15.4177C47.1955 15.551 47.4689 15.6177 47.7755 15.6177C48.0889 15.6177 48.3622 15.551 48.5955 15.4177C48.8355 15.2777 49.0222 15.0843 49.1555 14.8377C49.2955 14.591 49.3655 14.3143 49.3655 14.0077V9.28767H50.7255V14.0777C50.7255 14.611 50.5989 15.0877 50.3455 15.5077C50.0922 15.9277 49.7422 16.2577 49.2955 16.4977C48.8555 16.7377 48.3489 16.8577 47.7755 16.8577ZM52.0833 16.7377V9.28767H54.8633C55.3699 9.28767 55.8166 9.381 56.2033 9.56767C56.5966 9.74767 56.9033 10.0143 57.1233 10.3677C57.3433 10.7143 57.4533 11.1377 57.4533 11.6377C57.4533 12.131 57.3399 12.5543 57.1133 12.9077C56.8933 13.2543 56.5899 13.521 56.2033 13.7077C55.8166 13.8943 55.3699 13.9877 54.8633 13.9877H53.4433V16.7377H52.0833ZM53.4433 12.7877H54.8833C55.1299 12.7877 55.3433 12.741 55.5233 12.6477C55.7033 12.5477 55.8433 12.411 55.9433 12.2377C56.0433 12.0643 56.0933 11.8643 56.0933 11.6377C56.0933 11.4043 56.0433 11.2043 55.9433 11.0377C55.8433 10.8643 55.7033 10.731 55.5233 10.6377C55.3433 10.5377 55.1299 10.4877 54.8833 10.4877H53.4433V12.7877Z" fill="white"/>
</g>
<g clip-path="url(#clip2_580_2609)">
<rect x="30.2476" y="24.2377" width="0.00478125" height="0.00478125" fill="#C4C4C4"/>
</g>
</g>
<defs>
<clipPath id="clip0_580_2609">
<rect width="56" height="24.0048" fill="white" transform="translate(2.25 0.237671)"/>
</clipPath>
<clipPath id="clip1_580_2609">
<rect width="56" height="15" fill="white" transform="translate(2.25 4.73767)"/>
</clipPath>
<clipPath id="clip2_580_2609">
<rect width="24.0048" height="0.00476141" fill="white" transform="translate(18.2476 24.2377)"/>
</clipPath>
</defs>
</svg>
