<svg width="61" height="25" viewBox="0 0 61 25" fill="none" xmlns="http://www.w3.org/2000/svg">
<g clip-path="url(#clip0_580_2601)">
<g clip-path="url(#clip1_580_2601)">
<path d="M9.43623 10.3296C9.43623 10.6089 9.43623 10.8796 9.52432 11.1331C8.59834 12.2202 6.15342 15.0927 5.92568 15.3118C5.88042 15.3524 5.84421 15.4021 5.81941 15.4576C5.79461 15.5131 5.78178 15.5733 5.78174 15.6341C5.78174 15.8167 5.89346 15.9929 5.98799 16.0917C6.12979 16.2399 6.73564 16.8007 6.84736 16.6933C7.17822 16.371 7.24482 16.285 7.38018 16.1518C7.58428 15.952 7.35869 15.5438 7.42959 15.3784C7.50049 15.213 7.57568 15.1808 7.69814 15.155C7.82061 15.1292 8.0376 15.2173 8.20732 15.2194C8.38564 15.2216 8.48232 15.1464 8.61553 15.0218C8.72295 14.9229 8.80029 14.8306 8.80244 14.6866C8.80674 14.4933 8.52744 14.2376 8.73584 14.0335C8.94424 13.8294 9.24502 14.1667 9.46631 14.1409C9.6876 14.1151 9.95615 13.8079 9.98408 13.6768C10.012 13.5458 9.73271 13.2085 9.77568 13.0173C9.79072 12.9528 9.92178 12.8024 10.0206 12.7809C10.1194 12.7595 10.5577 12.9292 10.6565 12.9077C10.7769 12.8819 10.9165 12.7552 11.0304 12.6843C11.3634 12.8282 11.6663 12.8862 12.0552 12.8862C13.5269 12.8862 14.7192 11.739 14.7192 10.3253C14.7192 8.91161 13.5269 7.76929 12.0552 7.76929C10.5835 7.76929 9.43623 8.91591 9.43623 10.3296ZM13.3442 9.83179C13.3442 9.96776 13.3039 10.1007 13.2284 10.2137C13.1528 10.3268 13.0455 10.4149 12.9198 10.467C12.7942 10.519 12.656 10.5326 12.5226 10.5061C12.3893 10.4795 12.2668 10.4141 12.1706 10.3179C12.0745 10.2218 12.009 10.0993 11.9824 9.96591C11.9559 9.83255 11.9695 9.69432 12.0216 9.56869C12.0736 9.44307 12.1617 9.3357 12.2748 9.26015C12.3878 9.18461 12.5208 9.14429 12.6567 9.14429C12.8391 9.14429 13.0139 9.21672 13.1429 9.34565C13.2718 9.47458 13.3442 9.64945 13.3442 9.83179Z" fill="white"/>
<path d="M23.2609 16.8577C22.7875 16.8577 22.3475 16.771 21.9409 16.5977C21.5409 16.4243 21.1942 16.1843 20.9009 15.8777C20.6142 15.5643 20.4042 15.201 20.2709 14.7877L21.4009 14.2977C21.5809 14.7243 21.8409 15.061 22.1809 15.3077C22.5209 15.5477 22.9042 15.6677 23.3309 15.6677C23.5709 15.6677 23.7775 15.631 23.9509 15.5577C24.1309 15.4777 24.2675 15.371 24.3609 15.2377C24.4609 15.1043 24.5109 14.9443 24.5109 14.7577C24.5109 14.5377 24.4442 14.3577 24.3109 14.2177C24.1842 14.071 23.9909 13.9577 23.7309 13.8777L22.3009 13.4177C21.7209 13.2377 21.2842 12.9677 20.9909 12.6077C20.6975 12.2477 20.5509 11.8243 20.5509 11.3377C20.5509 10.911 20.6542 10.5343 20.8609 10.2077C21.0742 9.881 21.3675 9.62767 21.7409 9.44767C22.1209 9.261 22.5542 9.16767 23.0409 9.16767C23.4875 9.16767 23.8975 9.24767 24.2709 9.40767C24.6442 9.561 24.9642 9.77767 25.2309 10.0577C25.5042 10.331 25.7075 10.6543 25.8409 11.0277L24.7209 11.5277C24.5742 11.1543 24.3542 10.8677 24.0609 10.6677C23.7675 10.461 23.4275 10.3577 23.0409 10.3577C22.8142 10.3577 22.6142 10.3977 22.4409 10.4777C22.2675 10.551 22.1309 10.6577 22.0309 10.7977C21.9375 10.931 21.8909 11.091 21.8909 11.2777C21.8909 11.4843 21.9575 11.6677 22.0909 11.8277C22.2242 11.981 22.4275 12.101 22.7009 12.1877L24.0709 12.6177C24.6642 12.811 25.1075 13.0777 25.4009 13.4177C25.7009 13.7577 25.8509 14.1777 25.8509 14.6777C25.8509 15.1043 25.7409 15.481 25.5209 15.8077C25.3009 16.1343 24.9975 16.391 24.6109 16.5777C24.2242 16.7643 23.7742 16.8577 23.2609 16.8577ZM27.0755 16.7377V9.28767H28.4355V16.7377H27.0755ZM33.3984 16.8577C32.8651 16.8577 32.3718 16.761 31.9184 16.5677C31.4651 16.3743 31.0684 16.1043 30.7284 15.7577C30.3884 15.411 30.1218 15.0043 29.9284 14.5377C29.7418 14.071 29.6484 13.561 29.6484 13.0077C29.6484 12.4543 29.7384 11.9443 29.9184 11.4777C30.1051 11.0043 30.3651 10.5977 30.6984 10.2577C31.0384 9.911 31.4351 9.64434 31.8884 9.45767C32.3418 9.26434 32.8351 9.16767 33.3684 9.16767C33.9018 9.16767 34.3784 9.25767 34.7984 9.43767C35.2251 9.61767 35.5851 9.85767 35.8784 10.1577C36.1718 10.451 36.3818 10.7743 36.5084 11.1277L35.2984 11.7077C35.1584 11.321 34.9218 11.0077 34.5884 10.7677C34.2551 10.5277 33.8484 10.4077 33.3684 10.4077C32.9018 10.4077 32.4884 10.5177 32.1284 10.7377C31.7751 10.9577 31.4984 11.261 31.2984 11.6477C31.1051 12.0343 31.0084 12.4877 31.0084 13.0077C31.0084 13.5277 31.1084 13.9843 31.3084 14.3777C31.5151 14.7643 31.7984 15.0677 32.1584 15.2877C32.5184 15.5077 32.9318 15.6177 33.3984 15.6177C33.7784 15.6177 34.1284 15.5443 34.4484 15.3977C34.7684 15.2443 35.0251 15.031 35.2184 14.7577C35.4118 14.4777 35.5084 14.1477 35.5084 13.7677V13.1977L36.1284 13.7377H33.3684V12.5877H36.8684V13.3377C36.8684 13.911 36.7718 14.4177 36.5784 14.8577C36.3851 15.2977 36.1218 15.6677 35.7884 15.9677C35.4618 16.261 35.0918 16.4843 34.6784 16.6377C34.2651 16.7843 33.8384 16.8577 33.3984 16.8577ZM37.9446 16.7377V9.28767H39.0046L43.1046 14.8077L42.5546 14.9177V9.28767H43.9146V16.7377H42.8446L38.8046 11.1777L39.3046 11.0677V16.7377H37.9446ZM47.1341 16.7377V9.28767H48.4941V16.7377H47.1341ZM49.927 16.7377V9.28767H50.987L55.087 14.8077L54.537 14.9177V9.28767H55.897V16.7377H54.827L50.787 11.1777L51.287 11.0677V16.7377H49.927Z" fill="white"/>
</g>
<g clip-path="url(#clip2_580_2601)">
<rect x="30.7476" y="24.2377" width="0.00478125" height="0.00478125" fill="#C4C4C4"/>
</g>
</g>
<defs>
<clipPath id="clip0_580_2601">
<rect width="52" height="24.0048" fill="white" transform="translate(4.75 0.237671)"/>
</clipPath>
<clipPath id="clip1_580_2601">
<rect width="52" height="15" fill="white" transform="translate(4.75 4.73767)"/>
</clipPath>
<clipPath id="clip2_580_2601">
<rect width="24.0048" height="0.00476141" fill="white" transform="translate(18.7476 24.2377)"/>
</clipPath>
</defs>
</svg>
